<svg xmlns="http://www.w3.org/2000/svg" width="918" height="1024" fill="none"
viewBox="0 0 918 1024">
<path fill="url(#a)" d="M0 0h2v1024H0z"/>
<path fill="url(#b)" d="M51 0h2v1024h-1z"/>
<path fill="url(#c)" d="M102 0h2v1024h-1z"/>
<path fill="url(#d)" d="M153 0h2v1024h-1z"/>
<path fill="url(#e)" d="M204 0h2v1024h-1z"/>
<path fill="url(#f)" d="M255 0h2v1024h-1z"/>
<path fill="url(#g)" d="M306 0h2v1024h-1z"/>
<path fill="url(#h)" d="M357 0h2v1024h-1z"/>
<path fill="url(#i)" d="M408 0h2v1024h-1z"/>
<path fill="url(#j)" d="M459 0h2v1024h-1z"/>
<path fill="url(#k)" d="M510 0h2v1024h-1z"/>
<path fill="url(#l)" d="M561 0h2v1024h-1z"/>
<path fill="url(#m)" d="M612 0h2v1024h-1z"/>
<path fill="url(#n)" d="M663 0h2v1024h-1z"/>
<path fill="url(#o)" d="M714 0h2v1024h-1z"/>
<path fill="url(#p)" d="M765 0h2v1024h-1z"/>
<path fill="url(#q)" d="M816 0h2v1024h-1z"/>
<path fill="url(#r)" d="M867 0h2v1024h-1z"/>
<path fill="url(#s)" d="M918 0h2v1024h-1z"/>
<defs><linearGradient id="a" x1=".5" x2=".5" y1="0" y2="1024" gradientUnits="userSpaceOnUse"><stop stop-color="#fff" stop-opacity=".15"/><stop offset=".745" stop-color="#fff" stop-opacity="0"/></linearGradient><linearGradient id="b" x1="81.5" x2="81.5" y1="0" y2="1024" gradientUnits="userSpaceOnUse"><stop stop-color="#fff" stop-opacity=".15"/><stop offset=".745" stop-color="#fff" stop-opacity="0"/></linearGradient><linearGradient id="c" x1="162.5" x2="162.5" y1="0" y2="1024" gradientUnits="userSpaceOnUse"><stop stop-color="#fff" stop-opacity=".15"/><stop offset=".745" stop-color="#fff" stop-opacity="0"/></linearGradient><linearGradient id="d" x1="243.5" x2="243.5" y1="0" y2="1024" gradientUnits="userSpaceOnUse"><stop stop-color="#fff" stop-opacity=".15"/><stop offset=".745" stop-color="#fff" stop-opacity="0"/></linearGradient><linearGradient id="e" x1="324.5" x2="324.5" y1="0" y2="1024" gradientUnits="userSpaceOnUse"><stop stop-color="#fff" stop-opacity=".15"/><stop offset=".745" stop-color="#fff" stop-opacity="0"/></linearGradient><linearGradient id="f" x1="405.5" x2="405.5" y1="0" y2="1024" gradientUnits="userSpaceOnUse"><stop stop-color="#fff" stop-opacity=".15"/><stop offset=".745" stop-color="#fff" stop-opacity="0"/></linearGradient><linearGradient id="g" x1="486.5" x2="486.5" y1="0" y2="1024" gradientUnits="userSpaceOnUse"><stop stop-color="#fff" stop-opacity=".15"/><stop offset=".745" stop-color="#fff" stop-opacity="0"/></linearGradient><linearGradient id="h" x1="567.5" x2="567.5" y1="0" y2="1024" gradientUnits="userSpaceOnUse"><stop stop-color="#fff" stop-opacity=".15"/><stop offset=".745" stop-color="#fff" stop-opacity="0"/></linearGradient><linearGradient id="i" x1="648.5" x2="648.5" y1="0" y2="1024" gradientUnits="userSpaceOnUse"><stop stop-color="#fff" stop-opacity=".15"/><stop offset=".745" stop-color="#fff" stop-opacity="0"/></linearGradient><linearGradient id="j" x1="729.5" x2="729.5" y1="0" y2="1024" gradientUnits="userSpaceOnUse"><stop stop-color="#fff" stop-opacity=".15"/><stop offset=".745" stop-color="#fff" stop-opacity="0"/></linearGradient><linearGradient id="k" x1="810.5" x2="810.5" y1="0" y2="1024" gradientUnits="userSpaceOnUse"><stop stop-color="#fff" stop-opacity=".15"/><stop offset=".745" stop-color="#fff" stop-opacity="0"/></linearGradient><linearGradient id="l" x1="891.5" x2="891.5" y1="0" y2="1024" gradientUnits="userSpaceOnUse"><stop stop-color="#fff" stop-opacity=".15"/><stop offset=".745" stop-color="#fff" stop-opacity="0"/></linearGradient><linearGradient id="m" x1="972.5" x2="972.5" y1="0" y2="1024" gradientUnits="userSpaceOnUse"><stop stop-color="#fff" stop-opacity=".15"/><stop offset=".745" stop-color="#fff" stop-opacity="0"/></linearGradient><linearGradient id="n" x1="1053.5" x2="1053.5" y1="0" y2="1024" gradientUnits="userSpaceOnUse"><stop stop-color="#fff" stop-opacity=".15"/><stop offset=".745" stop-color="#fff" stop-opacity="0"/></linearGradient><linearGradient id="o" x1="1134.5" x2="1134.5" y1="0" y2="1024" gradientUnits="userSpaceOnUse"><stop stop-color="#fff" stop-opacity=".15"/><stop offset=".745" stop-color="#fff" stop-opacity="0"/></linearGradient><linearGradient id="p" x1="1215.5" x2="1215.5" y1="0" y2="1024" gradientUnits="userSpaceOnUse"><stop stop-color="#fff" stop-opacity=".15"/><stop offset=".745" stop-color="#fff" stop-opacity="0"/></linearGradient><linearGradient id="q" x1="1296.5" x2="1296.5" y1="0" y2="1024" gradientUnits="userSpaceOnUse"><stop stop-color="#fff" stop-opacity=".15"/><stop offset=".745" stop-color="#fff" stop-opacity="0"/></linearGradient><linearGradient id="r" x1="1377.5" x2="1377.5" y1="0" y2="1024" gradientUnits="userSpaceOnUse"><stop stop-color="#fff" stop-opacity=".15"/><stop offset=".745" stop-color="#fff" stop-opacity="0"/></linearGradient><linearGradient id="s" x1="1458.5" x2="1458.5" y1="0" y2="1024" gradientUnits="userSpaceOnUse"><stop stop-color="#fff" stop-opacity=".15"/><stop offset=".745" stop-color="#fff" stop-opacity="0"/></linearGradient></defs></svg>